<svg width="24" height="24" viewBox="0 0 24 24" fill="none" xmlns="http://www.w3.org/2000/svg">
  <path d="M12 22C17.5228 22 22 17.5228 22 12C22 6.47715 17.5228 2 12 2C6.47715 2 2 6.47715 2 12C2 17.5228 6.47715 22 12 22Z" stroke="#D4AF37" stroke-width="1.5" stroke-linecap="round" stroke-linejoin="round"/>
  <path d="M9 9.00002C9 8.40568 9.23705 7.8348 9.65901 7.41284C10.081 6.99088 10.6522 6.75383 11.2465 6.75383C11.8408 6.75383 12.4121 6.99088 12.834 7.41284C13.256 7.8348 13.493 8.40568 13.493 9.00002C13.493 9.57613 13.2126 10.1274 12.7368 10.4929C12.261 10.8583 11.7313 11.0329 11.2465 11.0329C10.7616 11.0329 10.2319 11.2076 9.75618 11.573C9.28041 11.9384 9 12.4897 9 13.0658" stroke="#D4AF37" stroke-width="1.5" stroke-linecap="round" stroke-linejoin="round"/>
  <path d="M11.25 17.25H11.258" stroke="#D4AF37" stroke-width="1.5" stroke-linecap="round" stroke-linejoin="round"/>
</svg> 